<?xml version="1.0"?>
<svg xmlns="http://www.w3.org/2000/svg" enable-background="new 0 0 800 546" viewBox="0 0 800 546">
  <g fill="#231f20">
    <path d="m97.5 489.4h7.2c.5 0 .6.1.6.6v22.8c0 1.5.5 2.2 2 2.6.3.1.3.2.3.4v6.9c0 .5-.2.5-.5.4-2.4-.2-4.5-1-6.3-2.6-1.6-1.5-2.7-3.3-3.1-5.4 0-.2 0-.4-.2-.5 0-8.3 0-16.7 0-25.2z"/>
    <path d="m97.5 477.2h7.2c.4 0 .6.1.6.5v6.1c0 .3 0 .5-.4.5-2.4 0-4.8 0-7.2 0-.1 0-.1 0-.2 0 0-2.4 0-4.8 0-7.1z"/>
    <path d="m389.8 476.3c-.2-.1-.1-.4-.1-.5 0-5 0-10.1 0-15.1 0-.2-.1-.4.1-.5z"/>
    <path d="m216.8 524c-3 0-5.8-.5-8.5-1.9-1.3-.7-2.4-1.6-3.4-2.6-.2-.2-.2-.3 0-.5 1.6-1.5 3.1-2.9 4.7-4.4.4-.3.5-.1.7.1 1.3 1.4 2.7 2.6 4.6 3.1 2 .6 3.9.5 5.7-.4.9-.5 1.7-1.2 1.9-2.3.2-1.4-.3-2.5-1.7-3.2-1.2-.6-2.4-.9-3.7-1.2-1.9-.4-3.8-.8-5.6-1.4-5.1-1.9-7.2-6.7-5.1-11.7 1.2-2.8 3.4-4.5 6.2-5.4 4.1-1.4 8.2-1.3 12.2.3 1.7.7 3.1 1.7 4.3 3.1.2.3.3.5 0 .7-1.5 1.3-3 2.7-4.5 4-.3.3-.4.3-.7 0-2-2.5-4.6-3.3-7.6-2.6-.8.2-1.6.6-2.1 1.3-1 1.3-.7 2.9.6 3.8 1.1.7 2.4 1 3.6 1.3 2.1.5 4.2.9 6.2 1.7 2.3.9 4.2 2.2 5.1 4.6 1.5 3.8.9 9.2-4.3 11.9-2.3 1.2-4.8 1.7-7.4 1.8-.5-.1-.8-.1-1.2-.1z"/>
    <path d="m355.7 516.4v6.2c0 .3-.1.4-.4.5-1.3.5-2.6.7-4 .8-1.9.1-3.8.1-5.7-.3-3.4-.7-5.3-2.9-5.9-6.3-.2-1.3-.3-2.6-.3-3.9 0-4.8 0-9.5 0-14.3 0-.5-.1-.6-.6-.6-1.8 0-3.6 0-5.4 0-.4 0-.5-.1-.5-.5 0-1.9 0-3.8 0-5.6 0-.4.1-.5.5-.5h5.4c.4 0 .5-.1.5-.5 0-2.7 0-5.3 0-8 0-.4.1-.6.5-.6h6.8c.4 0 .6.1.6.6v7.9c0 .5.1.7.6.7h7.4c.4 0 .6.1.6.5v5.6c0 .4-.1.5-.5.5-2.5 0-5.1 0-7.6 0-.3 0-.5 0-.5.4v13.9c0 .4.1.9.1 1.3.4 2 1.7 3 3.9 3.1 1.5.1 3-.1 4.5-.9z"/>
    <path d="m320.6 524c-4.2-.1-7.8-1.1-11-3.6-3.4-2.7-5.4-6.2-5.9-10.5-.5-4.2.2-8.1 2.6-11.7 2.8-4.1 6.8-6.2 11.6-6.9 3.8-.5 7.5 0 10.9 2 1.1.6 2 1.4 2.9 2.2.3.3.2.4 0 .6-1.6 1.6-3.2 3.2-4.8 4.8-.3.3-.4.3-.7 0-1.1-1.1-2.3-2.1-3.8-2.5-3-.8-5.6-.1-7.9 1.9-4.3 3.8-4.1 11.1.5 14.6 3 2.3 7.5 2.4 10.3.2.4-.3.7-.6 1-1 .2-.3.3-.3.6 0 1.5 1.7 3 3.3 4.6 4.9.3.4.3.5 0 .8-2 1.8-4.4 2.8-7 3.4-1.4.6-2.8.8-3.9.8z"/>
    <path d="m157.9 496.9c.7-1.2 1.5-2.3 2.6-3.2 2.7-2.2 5.7-2.9 9.1-2.1.4.1.5.2.5.6v6.4c0 .7 0 .7-.7.5-1.9-.5-3.8-.6-5.8-.1-3.1.8-5.2 3.3-5.7 6.5-.1.6-.1 1.1-.1 1.7v15.5c0 .4-.1.6-.6.6-2.3 0-4.5 0-6.8 0-.4 0-.5-.1-.5-.5 0-10.1 0-20.1 0-30.2 0-.4.1-.5.5-.5h6.8c.4 0 .5.1.5.5.1 1.4.2 2.8.2 4.3z"/>
    <path d="m366.8 470.7c0-1.3 0-2.6 0-3.9 0-.4.1-.5.5-.5h2.2c.4 0 .5.2.5.5v7.5c0 .6 0 1.1.7 1.2.2 0 .2.2.2.3v2.3c0 .4-.2.3-.5.3-2-.1-3.5-1.8-3.5-4-.1-1.1-.1-2.4-.1-3.7z"/>
    <path d="m368.2 464.5c-.4-.1-1 .2-1.4-.1-.3-.3-.1-.9-.1-1.4 0-1.2 0-1.2 1.1-1.2h1.6c.2 0 .4.1.3.3v2c0 .3-.1.4-.4.4-.1 0-.6 0-1.1 0z"/>
    <path d="m389.8 459.9c-.1-1.8-1.5-3.2-3.2-3.3-7.4 0-14.7 0-22.1 0 0 .1-.1.1-.2.1-1.8.5-2.9 1.9-2.9 3.7v20c0 2.1 1.5 3.8 3.6 3.8 2.6.1 5.2 0 7.8 0 .3 0 .4-.1.4-.4 0-.7 0-1.5 0-2.2 0-.4-.1-.5-.5-.5-2.4 0-4.7 0-7.1 0-.8 0-1.1-.3-1.1-1.1 0-6.4 0-12.9 0-19.3 0-.8.2-1.1 1.1-1.1h3.2 16.7c.8 0 1.1.2 1.1.9v15.2c0 .6-.2.9-.9.9-2.8 0-5.7 0-8.5 0-.7 0-.9-.2-.9-.9 0-1.1 0-2.2 0-3.3 0-.5.1-.6.6-.6 1.4 0 2.7 0 4.1-.2 2.5-.4 4-1.7 4.3-4 .2-1.7 0-3.3-1.3-4.5-1-.9-2.3-1.3-3.7-1.4-2.7-.2-5.4 0-8-.1-.3 0-.4.1-.4.4v1.6c-.1.6.1.8.7.7s.7.1.7.7v10.8c0 2.2 1.7 3.9 3.9 3.9h8.9c1.7 0 3.1-1.1 3.6-2.6.1-.2 0-.4.2-.5 0-.1 0-.2 0-.4-.1-.2-.1-.3-.1-.5 0-5.1 0-10.1 0-15.2 0-.2 0-.4.1-.5-.1 0-.1-.1-.1-.1zm-13.5 5c0-.2 0-.4.3-.4 1.2 0 2.5-.1 3.7.2s1.8 1 1.8 2.2-.6 1.9-1.8 2.2-2.5.2-3.7.2c-.3 0-.3-.2-.3-.4 0-.7 0-1.3 0-2s0-1.4 0-2z"/>
    <path d="m146.7 488.8c-.4-4.2-2.3-7.4-6.1-9.5-2.9-1.5-6.1-2.1-9.3-2.2-6.7-.1-13.4 0-20 0-.3 0-.4.1-.4.4v6.2c0 .4.2.5.5.5h2.4c.5 0 .6.2.6.7v18.8 18.9c0 .5.1.7.6.7h7c.5 0 .6-.2.6-.7 0-6 0-11.9 0-17.9 0-.4.1-.6.5-.6h6.5c2.9-.1 5.8-.3 8.6-1.2 3.5-1.1 6.2-3 7.6-6.5.9-2.4 1.1-5 .9-7.6zm-10 6c-1.1 1.2-2.6 1.7-4.2 2-1.4.3-2.8.3-4.2.3-1.7 0-3.5 0-5.2 0-.4 0-.6-.1-.6-.5 0-2 0-3.9 0-5.9s0-4 0-5.9c0-.3 0-.5.4-.5 2.8.1 5.7-.1 8.5.2 1.2.1 2.3.4 3.3.8 1.8.8 3 2.2 3.3 4.2.3 1.9.1 3.8-1.3 5.3z"/>
    <path d="m266.3 502.9c-.9-4.1-3.1-7.4-6.7-9.6-3.1-1.9-6.5-2.4-10.1-2-2.5.3-4.7 1.1-6.7 2.8-.9.7-1.6 1.6-2.2 2.6-.2-.2-.1-.4-.1-.6 0-1.2 0-2.4 0-3.5 0-.5-.1-.6-.6-.5-2.1 0-4.1 0-6.2 0-.6 0-.7.1-.7.7v44.7.7h7.9c0-6.3 0-12.5 0-19 .2.2.3.4.4.5.7.7 1.4 1.4 2.2 2 2.7 1.9 5.7 2.5 8.9 2.3 5-.3 9-2.5 11.7-6.8 2.9-4.4 3.4-9.2 2.2-14.3zm-16.4 14.1c-5.3 0-9.1-4-9.1-9.5 0-4.7 3.5-9.3 9.3-9.2 5.6.1 9.1 4.6 9 9.7-.2 5-4.1 9-9.2 9z"/>
    <path d="m203.4 506.3c0-.3-.1-.5-.1-.8-.6-5-3-8.9-7.3-11.6-4.1-2.6-8.6-3.2-13.3-2.3-4.3.8-7.8 2.9-10.3 6.5-2.4 3.3-3.2 7-2.9 11 .4 4.7 2.4 8.6 6.1 11.5 3.9 3 8.4 3.9 13.2 3.3 8.6-1 14.5-7.6 14.5-16.2.1-.5.1-1 .1-1.4zm-17 10.7c-5.3 0-9.2-4-9.2-9.5 0-5.3 4-9.2 9.2-9.2s9.1 4 9.1 9.3c.1 5.3-3.8 9.3-9.1 9.4z"/>
    <path d="m300 501.1c-1.3-4.1-3.8-7.2-7.9-8.9-3-1.2-6.1-1.3-9.2-.7-4.7.8-8.5 3.1-11.1 7.1-2.1 3.2-2.8 6.8-2.4 10.5.4 4.7 2.4 8.6 6.3 11.5 3.5 2.6 7.5 3.5 11.8 3.3 4.8-.3 8.6-2.3 11.7-5.9.2-.3.2-.4-.1-.6-1.6-1.2-3.2-2.4-4.8-3.7-.3-.3-.5-.3-.8.1-2.1 2.5-4.8 3.9-8.2 3.8-4.2 0-7.4-2.7-8.2-6.8-.1-.6.1-.6.6-.6h11.2 11.2.4c.2 0 .3-.1.3-.3.3-2.9.2-5.9-.8-8.8zm-7.2 3.4c-2.1 0-4.2 0-6.2 0-.4 0-.9 0-1.3 0-2.5 0-5 0-7.5 0-.5 0-.5-.1-.4-.6.5-2.5 1.6-4.6 3.9-5.9 3.2-1.8 8-1.1 10.3 1.5 1.1 1.3 1.6 2.9 1.7 4.6-.1.5-.4.4-.5.4z"/>
    <path d="m361.4 516.1c-2.1 0-3.7 1.6-3.7 3.6s1.6 3.7 3.7 3.7 3.7-1.6 3.7-3.7c-.1-2-1.7-3.6-3.7-3.6zm-.1 6.5c-1.5 0-2.7-1.2-2.7-2.8s1.2-2.9 2.7-2.9 2.7 1.2 2.7 2.8-1.2 2.9-2.7 2.9z"/>
    <path d="m362.3 520.5c-.2-.2-.2-.4.1-.6.5-.3.6-.8.5-1.3s-.5-.7-.9-.8c-.6-.1-1.2 0-1.8-.1-.3 0-.3.2-.3.4v3.1c0 .5.3.4.5.4.3 0 .5 0 .5-.4 0-.3-.1-.7.1-1.1.3.2.4.4.5.7.3.7.7.9 1.5.7-.3-.3-.5-.7-.7-1zm-1.1-1.1c-.4 0-.3-.2-.3-.5-.1-.4.2-.4.5-.4s.6.1.5.4c-.1.5-.4.4-.7.5z"/>
    <path d="m408.7 501.6c-.9-1-1.9-1.7-2.9-2.3s-2-.8-3-.8c-1.4 0-2.7.3-3.8.8s-2.1 1.2-2.9 2.1-1.4 1.9-1.8 3-.6 2.3-.6 3.5.2 2.4.6 3.5 1 2.1 1.8 3 1.8 1.6 2.9 2.1 2.4.8 3.8.8c1.2 0 2.3-.2 3.4-.7 1-.5 1.9-1.2 2.7-2.2l5.2 5.6c-.8.8-1.7 1.5-2.7 2s-2 1-3.1 1.4c-1 .3-2 .6-3 .7-1 .2-1.8.2-2.5.2-2.3 0-4.5-.4-6.6-1.2s-3.9-1.9-5.4-3.3-2.7-3.1-3.6-5.2c-.9-2-1.3-4.3-1.3-6.7 0-2.5.4-4.7 1.3-6.7s2.1-3.7 3.6-5.2c1.5-1.4 3.3-2.5 5.4-3.3s4.3-1.2 6.6-1.2c2 0 4 .4 6 1.1 2 .8 3.8 2 5.3 3.6z"/>
    <path d="m415.1 507.8c0-2.5.4-4.7 1.3-6.7s2.1-3.7 3.6-5.2c1.5-1.4 3.3-2.5 5.4-3.3s4.3-1.2 6.6-1.2 4.5.4 6.6 1.2 3.9 1.9 5.4 3.3 2.7 3.1 3.6 5.2c.9 2 1.3 4.3 1.3 6.7 0 2.5-.4 4.7-1.3 6.7s-2.1 3.7-3.6 5.2c-1.5 1.4-3.3 2.5-5.4 3.3s-4.3 1.2-6.6 1.2-4.5-.4-6.6-1.2-3.9-1.9-5.4-3.3-2.7-3.1-3.6-5.2c-.8-2-1.3-4.2-1.3-6.7zm7.8 0c0 1.2.2 2.4.6 3.5s1 2.1 1.8 3 1.8 1.6 2.9 2.1 2.4.8 3.8.8 2.7-.3 3.8-.8 2.1-1.2 2.9-2.1 1.4-1.9 1.8-3 .6-2.3.6-3.5-.2-2.4-.6-3.5-1-2.1-1.8-3-1.8-1.6-2.9-2.1-2.4-.8-3.8-.8-2.7.3-3.8.8-2.1 1.2-2.9 2.1-1.4 1.9-1.8 3c-.4 1.2-.6 2.3-.6 3.5z"/>
    <path d="m454 492.3h7.4v4.9h.1c.7-1.5 1.8-2.8 3.3-3.9s3.6-1.7 6.2-1.7c4.9 0 8.1 1.9 9.7 5.8 1.1-2 2.5-3.4 4.2-4.4 1.7-.9 3.7-1.4 6-1.4 2.1 0 3.8.3 5.3 1 1.4.7 2.6 1.6 3.5 2.9.9 1.2 1.5 2.6 1.9 4.2s.6 3.4.6 5.2v18.6h-7.8v-17.7c0-.9-.1-1.9-.3-2.8s-.5-1.7-.9-2.3c-.4-.7-1-1.2-1.7-1.6s-1.7-.6-2.9-.6-2.2.2-3.1.7c-.8.5-1.5 1.1-2.1 1.8-.5.8-.9 1.6-1.2 2.6-.2 1-.4 2-.4 3v16.9h-7.8v-18.6c0-1.9-.4-3.5-1.2-4.6s-2.2-1.7-4.1-1.7c-1.3 0-2.4.2-3.3.6s-1.6 1-2.2 1.8c-.6.7-1 1.6-1.3 2.5-.3 1-.4 1.9-.4 3v17h-7.5z"/>
    <path d="m508.8 492.3h7.4v4.7h.1c1.1-1.9 2.6-3.3 4.5-4.2s4-1.3 6.2-1.3c2.4 0 4.5.4 6.4 1.3 1.9.8 3.5 2 4.9 3.5 1.3 1.5 2.4 3.2 3 5.2.7 2 1 4.1 1 6.4s-.4 4.4-1.1 6.4-1.8 3.7-3.1 5.2-2.9 2.6-4.8 3.5c-1.9.8-3.9 1.3-6.1 1.3-1.5 0-2.8-.2-3.9-.5s-2.1-.7-3-1.2-1.6-1-2.2-1.5-1.1-1.1-1.5-1.6h-.2v18.8h-7.8v-46zm25.8 15.5c0-1.2-.2-2.4-.6-3.5s-1-2.1-1.8-3-1.8-1.6-2.9-2.1-2.4-.8-3.8-.8-2.7.3-3.8.8-2.1 1.2-2.9 2.1-1.4 1.9-1.8 3-.6 2.3-.6 3.5.2 2.4.6 3.5 1 2.1 1.8 3 1.8 1.6 2.9 2.1 2.4.8 3.8.8 2.7-.3 3.8-.8 2.1-1.2 2.9-2.1 1.4-1.9 1.8-3 .6-2.2.6-3.5z"/>
    <path d="m567.2 519.1h-.2c-1.1 1.8-2.6 3.1-4.3 3.9s-3.6 1.2-5.7 1.2c-1.4 0-2.8-.2-4.2-.6s-2.6-1-3.6-1.8c-1.1-.8-1.9-1.8-2.6-2.9-.6-1.2-1-2.5-1-4.1 0-1.7.3-3.1.9-4.3s1.4-2.2 2.4-3 2.2-1.4 3.5-1.9 2.7-.8 4.2-1.1c1.5-.2 2.9-.4 4.4-.5s2.9-.1 4.2-.1h1.9v-.8c0-1.9-.7-3.4-2-4.4s-3-1.5-5.1-1.5c-1.6 0-3.2.3-4.6.9s-2.7 1.4-3.7 2.4l-4.1-4.1c1.7-1.8 3.8-3 6.1-3.8s4.7-1.2 7.2-1.2c2.2 0 4.1.2 5.6.7s2.8 1.1 3.8 1.9 1.8 1.7 2.3 2.7.9 2 1.2 3.1c.2 1 .4 2 .4 3s.1 1.8.1 2.6v17.9h-7v-4.2zm-.4-9.6h-1.6c-1.1 0-2.3 0-3.6.1s-2.6.3-3.8.6-2.2.8-3 1.4-1.2 1.5-1.2 2.6c0 .7.2 1.4.5 1.8s.7.9 1.3 1.3c.5.3 1.1.6 1.8.7.6.1 1.3.2 1.9.2 2.7 0 4.7-.6 5.9-1.9 1.3-1.3 1.9-3 1.9-5.2v-1.6z"/>
    <path d="m580.6 492.3h7.4v5h.1c.7-1.6 1.9-2.9 3.4-4.1 1.5-1.1 3.6-1.7 6.2-1.7 2.1 0 3.8.3 5.3 1 1.4.7 2.6 1.6 3.5 2.7s1.6 2.4 1.9 3.9c.4 1.5.6 3 .6 4.6v19.7h-7.8v-15.8c0-.9 0-1.8-.1-2.9s-.3-2.1-.7-3-.9-1.7-1.7-2.3-1.8-.9-3.2-.9c-1.3 0-2.4.2-3.3.6s-1.6 1-2.2 1.8c-.6.7-1 1.6-1.3 2.5-.3 1-.4 1.9-.4 3v17h-7.8v-31.1z"/>
    <path d="m611.7 492.3h8.6l8.7 21.6h.1l7.8-21.6h8.1l-14.7 37.8c-.6 1.5-1.2 2.8-1.8 3.9-.7 1.1-1.5 2-2.4 2.8s-2 1.3-3.2 1.7-2.7.5-4.4.5c-2 0-4-.3-6-.8l1-7c.6.2 1.2.4 1.9.6s1.4.2 2 .2c1 0 1.8-.1 2.4-.3s1.2-.4 1.7-.8.8-.8 1.1-1.4.6-1.3 1-2.1l1.5-3.7z"/>
    <path d="m33 519.1h-.2c-1.1 1.8-2.6 3.1-4.3 3.9s-3.6 1.2-5.7 1.2c-1.4 0-2.8-.2-4.2-.6s-2.6-1-3.6-1.8c-1.1-.8-1.9-1.8-2.6-2.9s-1-2.5-1-4.1c0-1.7.3-3.1.9-4.3s1.4-2.2 2.4-3 2.2-1.4 3.5-1.9 2.7-.8 4.2-1.1 2.9-.4 4.4-.5 2.9-.1 4.2-.1h2v-.8c0-1.9-.7-3.4-2-4.4s-3-1.5-5.1-1.5c-1.6 0-3.2.3-4.6.9s-2.7 1.4-3.7 2.4l-4.1-4.1c1.7-1.8 3.8-3 6.1-3.8s4.7-1.2 7.2-1.2c2.2 0 4.1.2 5.6.7s2.8 1.1 3.8 1.9 1.8 1.7 2.3 2.7.9 2 1.2 3.1c.2 1 .4 2 .4 3s.1 1.8.1 2.6v17.9h-7v-4.2zm-.5-9.6h-1.6c-1.1 0-2.3 0-3.6.1s-2.6.3-3.8.6-2.2.8-3 1.4-1.2 1.5-1.2 2.6c0 .7.2 1.4.5 1.8s.7.9 1.3 1.3c.5.3 1.1.6 1.8.7.6.1 1.3.2 1.9.2 2.7 0 4.7-.6 5.9-1.9 1.3-1.3 1.9-3 1.9-5.2v-1.6z"/>
    <path d="m46.8 492.3h7.4v5h.1c.7-1.6 1.9-2.9 3.4-4.1 1.5-1.1 3.6-1.7 6.2-1.7 2.1 0 3.8.3 5.3 1 1.4.7 2.6 1.6 3.5 2.7s1.6 2.4 1.9 3.9c.4 1.5.6 3 .6 4.6v19.7h-7.8v-15.8c0-.9 0-1.8-.1-2.9s-.3-2.1-.7-3-.9-1.7-1.7-2.3-1.8-.9-3.2-.9c-1.3 0-2.4.2-3.3.6s-1.6 1-2.2 1.8c-.6.7-1 1.6-1.3 2.5-.3 1-.4 1.9-.4 3v17h-7.8v-31.1z"/>
    <path d="m495.9 434.6c-49.6-14.3-85.8-59.9-85.8-114.1 0-2.9.2-5.6.4-8.4 0-.6 0-1.1.1-1.7.1-1.1.2-2.3.3-3.4 3.2-33.2 20.8-62.4 46.8-81.6-.5-.4-1-.8-1.4-1.1-1.3-1-2.6-2-3.8-3-2.5-2-4.8-4.2-7.1-6.5-.2-.2-.5-.5-.7-.7-18.6-18.5-30.9-42.8-33.7-69.9-.2-1.3-.3-2.6-.4-4 0-.4 0-.8-.1-1.1-.2-2.9-.4-5.7-.4-8.7 0-54.6 32.8-100.4 82.9-114.4h-175.8l-64.4 234.2h-1.2l-64.4-234.2h-171.9v418.6h120.4v-197.5h1.2l71.6 197.5h77.9l71.6-197.5h1.2v197.5z"/>
    <path d="m563.6 177.4c1.4 0 2.7 0 4.1.1 24.1-1.6 43.1-20.9 43.1-44.6 0-24.7-20.8-44.7-46.4-44.7s-46.4 20-46.4 44.7c0 23.5 18.7 42.7 42.6 44.5z"/>
    <path d="m564.4 361.3c27.3 0 49.5-21.4 49.5-47.7s-22.2-47.7-49.5-47.7-49.5 21.4-49.5 47.7 22.2 47.7 49.5 47.7z"/>
  </g>
</svg>
